<svg id="local_mall_black_24dp" xmlns="http://www.w3.org/2000/svg" width="52.266" height="52.266" viewBox="0 0 52.266 52.266">
  <path id="Path_1" data-name="Path 1" d="M0,0H52.266V52.266H0Z" fill="none"/>
  <path id="Path_2" data-name="Path 2" d="M37.844,11.889H33.489a10.889,10.889,0,1,0-21.778,0H7.356a4.35,4.35,0,0,0-4.334,4.356L3,42.377a4.368,4.368,0,0,0,4.356,4.356H37.844A4.368,4.368,0,0,0,42.2,42.377V16.244A4.368,4.368,0,0,0,37.844,11.889ZM22.6,5.356a6.525,6.525,0,0,1,6.533,6.533H16.067A6.525,6.525,0,0,1,22.6,5.356Zm0,21.778A10.893,10.893,0,0,1,11.711,16.244h4.356a6.533,6.533,0,0,0,13.067,0h4.356A10.893,10.893,0,0,1,22.6,27.133Z" transform="translate(3.533 1.178)" fill="#fff"/>
</svg>
